<?xml version="1.0" standalone="no"?>
<!DOCTYPE svg PUBLIC "-//W3C//DTD SVG 20010904//EN"
 "http://www.w3.org/TR/2001/REC-SVG-20010904/DTD/svg10.dtd">
<svg version="1.0" xmlns="http://www.w3.org/2000/svg"
 width="1298.000000pt" height="1298.000000pt" viewBox="0 0 1298.000000 1298.000000"
 preserveAspectRatio="xMidYMid meet">
<metadata>
Created by potrace 1.11, written by Peter Selinger 2001-2013
</metadata>
<g transform="translate(0.000000,1298.000000) scale(0.100000,-0.100000)"
fill="#000000" stroke="none">
<path d="M11650 9375 l0 -35 -5535 0 -5535 0 0 -2243 0 -2244 1747 -6 c961 -4
3751 -4 6200 0 l4453 6 0 2244 0 2243 -205 0 -205 0 0 35 0 35 -460 0 -460 0
0 -35z m-1948 -1495 c27 -27 30 -36 25 -71 -9 -69 -68 -111 -186 -133 l-66
-12 -23 -69 -24 -69 22 -18 c27 -22 39 -16 19 9 -12 15 -12 16 5 9 20 -7 20
-7 0 15 -19 22 -19 22 5 14 16 -5 21 -4 17 4 -4 6 10 2 32 -9 50 -26 58 -47
34 -79 -14 -18 -28 -25 -57 -25 -21 -1 -40 -6 -42 -13 -8 -22 46 -26 105 -7
l57 19 9 57 c8 49 12 57 35 62 57 13 258 18 301 8 24 -6 46 -9 48 -7 2 2 -18
47 -46 99 -28 53 -46 96 -40 96 16 0 186 -103 258 -156 35 -26 97 -80 137
-121 40 -40 75 -73 77 -73 3 0 10 15 15 33 7 24 9 27 10 10 2 -40 -39 -130
-79 -176 -22 -24 -37 -47 -34 -50 10 -10 -96 -36 -181 -45 l-80 -8 41 -12 c23
-7 80 -16 128 -21 125 -12 121 -24 -5 -16 -161 11 -219 25 -238 57 -21 36 -57
62 -134 99 -53 24 -82 31 -164 36 l-100 6 -49 -34 c-63 -42 -107 -89 -108
-114 -3 -36 29 -124 61 -169 40 -56 127 -101 178 -93 71 12 130 81 106 125 -8
15 -25 20 -72 25 -47 4 -67 11 -88 31 -15 14 -35 26 -44 26 -11 0 -17 8 -17
24 0 29 13 35 60 29 l35 -4 -33 29 c-32 28 -32 30 -16 47 17 17 19 16 39 -9
15 -19 30 -26 55 -26 30 0 42 -9 82 -54 51 -58 65 -85 68 -132 4 -53 0 -63
-36 -100 -129 -128 -307 -88 -420 97 -20 32 -38 59 -40 59 -2 0 -8 -18 -14
-40 -8 -31 -7 -47 5 -76 8 -20 15 -45 15 -56 0 -46 122 -229 180 -269 25 -18
50 -116 49 -189 l-1 -55 -14 78 c-18 107 -20 111 -29 42 -9 -81 -19 -120 -31
-120 -5 -1 -18 -6 -29 -12 -33 -18 -78 -23 -115 -14 -19 5 -27 9 -16 10 15 1
10 10 -26 49 -24 26 -63 73 -87 106 -44 60 -137 226 -127 226 3 0 29 -17 58
-37 40 -29 50 -33 44 -18 -49 127 -88 318 -73 358 4 11 16 14 44 10 37 -5 39
-3 63 39 20 36 25 58 26 134 l2 91 -39 -11 c-36 -9 -40 -8 -61 19 -27 34 -43
69 -27 59 6 -4 15 0 20 7 7 11 9 10 9 -5 0 -20 0 -20 15 0 14 19 14 18 15 -3
0 -18 6 -23 25 -23 24 0 30 9 26 39 -2 7 2 10 7 7 5 -3 14 6 20 19 7 14 20 25
30 25 15 0 29 22 57 85 21 47 36 88 32 91 -9 9 -118 -16 -174 -42 -29 -12 -76
-44 -104 -71 -29 -26 -47 -39 -41 -27 18 34 91 94 146 120 28 13 84 31 123 40
l73 16 35 67 c76 144 179 198 247 131z m-5001 -176 c-15 -79 -13 -109 3 -64 8
20 25 58 39 86 l26 51 60 2 c60 2 129 -22 146 -50 4 -6 -6 -4 -23 5 l-31 16
40 -86 c39 -82 79 -220 93 -314 7 -50 7 -50 -54 29 l-25 33 -1 -134 c-1 -145
-25 -255 -55 -251 -8 1 -27 5 -42 9 -43 10 -92 -42 -117 -126 -11 -36 -29 -81
-41 -100 -20 -32 -20 -34 -2 -17 11 9 34 17 51 17 25 0 35 -6 47 -30 16 -31
22 -96 6 -71 -7 11 -10 10 -14 -5 -4 -15 -5 -14 -6 6 -2 24 -2 24 -16 6 -14
-19 -15 -19 -15 6 0 41 -27 42 -67 3 -23 -23 -43 -33 -54 -30 -12 4 -36 -15
-83 -67 l-65 -73 32 -9 c17 -4 73 -6 123 -4 78 3 101 9 155 35 57 28 61 29 34
7 -58 -47 -125 -64 -251 -64 l-116 0 -57 -52 c-61 -56 -140 -98 -184 -98 -43
0 -84 26 -96 61 -9 26 -8 39 6 68 29 58 70 73 186 68 l99 -4 40 54 c36 48 40
56 30 78 -7 14 -17 25 -24 25 -9 0 -9 -3 0 -12 17 -17 15 -33 -3 -18 -18 15
-20 -1 -3 -18 7 -7 8 -12 2 -12 -6 0 -16 6 -23 13 -10 10 -11 8 -6 -8 5 -13
-6 -6 -29 19 -43 45 -44 55 -12 85 23 22 27 22 54 8 21 -10 35 -11 47 -4 14 8
15 11 4 18 -28 18 -90 30 -126 23 -31 -6 -38 -13 -57 -56 l-21 -50 -43 7 c-80
12 -196 46 -260 75 l-63 30 7 -58 c4 -31 12 -80 19 -109 7 -29 9 -53 5 -53
-13 0 -144 150 -205 235 -32 44 -77 119 -101 168 l-43 88 -25 -43 c-31 -51
-34 -43 -6 13 30 58 83 113 130 134 22 10 40 25 40 33 0 12 11 13 63 8 34 -4
91 -14 127 -21 36 -7 66 -12 68 -10 7 7 -86 56 -165 86 -46 18 -81 34 -79 36
8 8 168 -51 238 -87 55 -28 74 -43 76 -60 8 -53 119 -179 173 -195 13 -4 31
-13 39 -20 8 -7 41 -21 72 -30 51 -14 62 -15 113 -1 31 8 65 22 74 30 10 9 25
16 35 16 45 0 52 152 11 236 -53 109 -141 144 -234 94 -43 -23 -47 -100 -5
-100 30 0 94 -41 108 -69 9 -16 22 -31 31 -34 19 -8 19 -31 -1 -48 -13 -10
-20 -10 -45 5 -40 24 -48 13 -20 -25 19 -25 21 -33 10 -40 -24 -15 -35 -10
-50 24 -10 23 -22 33 -42 35 -19 2 -31 12 -39 30 -6 15 -19 45 -30 68 -10 22
-18 55 -18 73 0 44 21 112 31 105 5 -3 9 3 9 12 0 10 3 15 6 11 4 -3 13 0 20
8 8 7 39 19 69 25 45 9 65 9 110 -5 97 -28 154 -95 191 -225 12 -41 25 -74 30
-74 4 1 16 16 25 34 29 53 19 203 -20 310 -17 47 -40 97 -51 112 -25 34 -26
86 -3 176 19 78 29 69 14 -14z"/>
<path d="M9614 7850 c-35 -14 -126 -132 -111 -146 10 -10 135 38 156 60 43 45
11 106 -45 86z"/>
<path d="M4247 6530 c-42 -13 -57 -29 -57 -61 0 -65 71 -59 163 14 l52 42 -30
6 c-42 9 -95 9 -128 -1z"/>
<path d="M2980 4610 l0 -219 230 -3 230 -3 0 188 0 187 80 0 80 0 0 -187 0
-188 1630 3 1630 2 0 220 0 220 -1940 0 -1940 0 0 -220z"/>
</g>
</svg>
