<?xml version="1.0" encoding="UTF-8" standalone="no"?>
<!-- Created with Inkscape (http://www.inkscape.org/) -->

<svg
   xmlns:dc="http://purl.org/dc/elements/1.1/"
   xmlns:cc="http://creativecommons.org/ns#"
   xmlns:rdf="http://www.w3.org/1999/02/22-rdf-syntax-ns#"
   xmlns:svg="http://www.w3.org/2000/svg"
   xmlns="http://www.w3.org/2000/svg"
   xmlns:sodipodi="http://sodipodi.sourceforge.net/DTD/sodipodi-0.dtd"
   xmlns:inkscape="http://www.inkscape.org/namespaces/inkscape"
   width="210mm"
   height="297mm"
   viewBox="0 0 210 297"
   version="1.1"
   id="svg8"
   inkscape:version="0.92.5 (2060ec1f9f, 2020-04-08)"
   sodipodi:docname="gpu-dragon-logo-orig.svg">
  <defs
     id="defs2" />
  <sodipodi:namedview
     id="base"
     pagecolor="#ffffff"
     bordercolor="#666666"
     borderopacity="1.0"
     inkscape:pageopacity="0.0"
     inkscape:pageshadow="2"
     inkscape:zoom="1.979899"
     inkscape:cx="589.88747"
     inkscape:cy="752.91316"
     inkscape:document-units="mm"
     inkscape:current-layer="layer3"
     showgrid="false"
     inkscape:window-width="3840"
     inkscape:window-height="2044"
     inkscape:window-x="0"
     inkscape:window-y="27"
     inkscape:window-maximized="1" />
  <metadata
     id="metadata5">
    <rdf:RDF>
      <cc:Work
         rdf:about="">
        <dc:format>image/svg+xml</dc:format>
        <dc:type
           rdf:resource="http://purl.org/dc/dcmitype/StillImage" />
        <dc:title></dc:title>
      </cc:Work>
    </rdf:RDF>
  </metadata>
  <g
     inkscape:groupmode="layer"
     id="layer3"
     inkscape:label="Card"
     style="opacity:1">
    <rect
       style="opacity:1;fill:#0044aa;fill-opacity:1;stroke:#000000;stroke-width:0.70896286;stroke-miterlimit:4;stroke-dasharray:none;stroke-opacity:1"
       id="rect917"
       width="163.33534"
       height="58.645348"
       x="25.463388"
       y="44.72728" />
    <path
       style="opacity:1;fill:#c87137;fill-opacity:1;stroke:#000000;stroke-width:0;stroke-miterlimit:4;stroke-dasharray:none;stroke-opacity:1"
       d="m 56.714041,103.72662 v 6.24944 h 6.345645 v -4.88883 h 1.868387 v 4.88883 h 43.416377 v -6.24944 z"
       id="rect929"
       inkscape:connector-curvature="0" />
    <path
       style="opacity:1;fill:#aaaaaa;fill-opacity:1;stroke:#000000;stroke-width:0;stroke-miterlimit:4;stroke-dasharray:none;stroke-opacity:1"
       d="m 17.439274,46.41405 v 1.5065 h 5.779069 v 72.86044 h 1.894848 v -72.86044 -1.5065 z"
       id="rect936"
       inkscape:connector-curvature="0" />
    <circle
       style="opacity:1;fill:#333333;fill-opacity:1;stroke:#000000;stroke-width:0.20249577;stroke-miterlimit:4;stroke-dasharray:none;stroke-opacity:1"
       id="path944"
       cx="145.04901"
       cy="73.877998"
       r="23.854523" />
    <circle
       style="opacity:1;fill:#333333;fill-opacity:1;stroke:#000000;stroke-width:0.20249578;stroke-miterlimit:4;stroke-dasharray:none;stroke-opacity:1"
       id="path944-3"
       cx="75.953827"
       cy="73.877998"
       r="23.854523" />
    <rect
       style="opacity:1;fill:#000000;fill-opacity:1;stroke:#000000;stroke-width:0.18413427;stroke-miterlimit:4;stroke-dasharray:none;stroke-opacity:1"
       id="rect983"
       width="11.958209"
       height="1.4059367"
       x="171.68651"
       y="43.53046" />
  </g>
  <g
     inkscape:groupmode="layer"
     id="layer4"
     inkscape:label="Fans">
    <circle
       style="opacity:1;fill:#114dad;fill-opacity:0.8627451;stroke:#000000;stroke-width:0.21268886;stroke-miterlimit:4;stroke-dasharray:none;stroke-opacity:1"
       id="path963"
       cx="145.04901"
       cy="73.877998"
       r="12.862611" />
    <path
       id="path883"
       d="m 144.12261,83.76848 0.005,-0.113249 a 14.458884,14.458884 0 0 0 -0.0172,-1.694925 5.1379505,5.1379505 0 0 0 -0.0975,-0.746701 2.5631901,2.5631901 0 0 0 -0.16457,-0.551672 0.44232834,0.44232834 0 0 0 -0.0769,-0.140474 l -0.002,-0.0028 a 0.26432899,0.26432899 0 0 0 -0.0185,-0.318041 0.26699898,0.26699898 0 0 0 -0.28871,-0.09032 c -0.23518,-0.234397 -0.69821,-0.742014 -1.2871,-1.476812 l -0.0773,-0.100176 a 7.1217529,7.1217529 0 0 1 -1.01125,-1.848188 c 0.0174,-0.0014 0.0291,-0.0064 0.034,-0.01475 0.0189,-0.01907 0.009,-0.145344 -0.0104,-0.279948 -0.0107,-0.09466 -0.0278,-0.20143 -0.0577,-0.287307 a 0.32929873,0.32929873 0 0 0 -0.0581,-0.11325 0.22160915,0.22160915 0 0 0 -0.0565,-0.05501 c -0.0281,-0.02042 -0.0477,-0.02744 -0.0477,-0.02744 a 6.0849064,6.0849064 0 0 1 -0.002,-0.0073 0.12815951,0.12815951 0 0 0 -0.0184,-0.06189 l -0.009,-0.02758 a 6.0849064,6.0849064 0 0 1 -0.11894,-0.508468 l -0.0269,-0.141324 a 6.0849064,6.0849064 0 0 1 -0.0164,-0.118617 0.13972946,0.13972946 0 0 0 0.0236,-0.0021 0.14239944,0.14239944 0 0 0 0.0651,-0.07923 c 0.0133,-0.04984 -0.005,-0.218659 0.13593,-0.53414 0.0481,-0.107082 0.1034,-0.191342 0.15627,-0.258864 a 12.550732,12.550732 0 0 0 0.99473,1.566305 4.5140625,4.5140625 0 0 0 0.63935,0.692408 c 0.004,0.0096 0.008,0.01482 0.008,0.01482 l -0.003,-0.01092 a 3.8670351,3.8670351 0 0 0 0.32959,0.257091 3.1630479,3.1630479 0 0 0 1.2789,0.546844 c 0.85947,0.164345 1.67298,-0.05672 2.21086,-0.467447 l 0.0875,-0.06877 c 0.004,0.005 0.009,0.01035 0.0111,0.01694 0.0406,0.07931 0.055,0.101028 0.077,-0.02814 a 0.77607702,0.77607702 0 0 0 0.009,-0.06934 c 0.0356,-0.03091 0.0674,-0.05962 0.0966,-0.08716 a 0.63723756,0.63723756 0 0 1 0.063,0.0727 c 0.0401,0.05459 0.055,0.101027 0.077,-0.02822 a 0.49216809,0.49216809 0 0 0 0.004,-0.195099 c 0.03,-0.03368 0.0466,-0.05544 0.0466,-0.05544 l -0.0297,0.02701 0.0279,-0.03198 c 0.0346,0.01999 0.0957,0.04261 0.12313,0.08314 0.0595,0.08693 0.0491,0.120595 0.0621,0.02396 0.0169,-0.117177 0.012,-0.269519 -0.0167,-0.32993 l 0.0491,-0.07487 c 0.023,0.0028 0.0904,0.0064 0.15951,0.07426 0.0709,0.06849 0.10172,0.107578 0.0839,-0.0099 a 1.0145961,1.0145961 0 0 0 -0.10684,-0.313631 c 0.0136,-0.02843 0.0264,-0.05629 0.0381,-0.08416 a 0.24029909,0.24029909 0 0 1 0.13674,0.08723 c 0.0849,0.09611 0.1195,0.202515 0.0844,0.0091 a 1.4542544,1.4542544 0 0 0 -0.128,-0.362025 c 0.01,-0.0385 0.0201,-0.07516 0.0279,-0.11359 a 2.4029909,2.4029909 0 0 1 0.10132,0.112682 c 0.0817,0.0966 0.15146,0.215071 0.061,-0.0195 -0.0265,-0.0692 -0.0716,-0.162154 -0.13243,-0.260579 0.0616,-0.492815 -0.0684,-0.998 -0.44137,-1.446051 l -0.004,-0.0057 c -0.0649,-0.08164 -0.13218,-0.15393 -0.1954,-0.219552 -0.14787,-0.152852 -0.2859,-0.269803 -0.41445,-0.356736 -0.008,-0.143097 -0.317,-0.532863 -0.45371,-0.569418 -0.10881,-0.03056 -0.53892,0.03807 -0.62855,0.05502 a 0.32662874,0.32662874 0 0 1 -0.11714,-0.01113 c -0.18504,-0.06473 -0.39855,-0.326023 -0.4477,-0.509964 -0.0603,-0.224351 -0.23421,-0.136149 -0.37669,-0.06012 -0.14395,0.07421 -0.27328,0.249286 -0.2527,0.341997 0.0211,0.09185 0.28024,0.126365 0.58455,0.382067 0.3051,0.255262 0.17732,0.39989 0.17732,0.39989 0,0 -0.0782,0.03793 -0.3036,-0.03821 -0.17435,-0.05863 -0.33267,-0.08786 -0.46412,-0.09543 a 0.64702752,0.64702752 0 0 1 0.0417,-0.231703 c -0.0849,0.0648 -0.13665,0.170328 -0.16056,0.231093 a 0.68529735,0.68529735 0 0 0 -0.0743,0.0089 0.90334655,0.90334655 0 0 1 0.006,-0.06253 0.45033829,0.45033829 0 0 0 -0.0617,0.0764 0.26254899,0.26254899 0 0 0 -0.0706,0.03169 c -0.1132,0.07949 -0.18555,0.574693 -0.14563,0.623554 0.0106,0.01297 0.033,0.01914 0.0617,0.02212 0.0543,0.0074 0.13908,0.0014 0.24225,0.0057 a 0.91669646,0.91669646 0 0 1 0.14114,0.01801 0.64346755,0.64346755 0 0 1 0.30787,0.178489 l 0.006,0.0078 0.0192,0.019 c 0,0 -3.6e-4,0.0085 -3.6e-4,0.02198 l -0.002,-0.0028 0.004,0.01007 c 0.009,0.08452 0.11002,0.345662 0.93095,0.478302 a 2.7100397,2.7100397 0 0 0 1.03475,-0.03403 c 0.29508,0.302096 0.41111,0.714167 0.20524,1.131753 l 0.001,-0.0057 -7.1e-4,0.01 c -0.099,0.198162 -0.26906,0.397934 -0.52781,0.587631 -0.49681,0.362521 -1.04301,0.439528 -1.57165,0.312986 -0.75518,-0.201275 -1.51098,-0.811217 -2.00454,-1.644582 0.0102,-0.08306 -0.004,-0.08255 -0.0344,-0.06047 a 4.1082243,4.1082243 0 0 1 -0.11573,-0.21907 l 0.0101,-0.02559 c 0.043,-0.120318 0.008,-0.09026 -0.0517,-0.06331 l -0.006,-0.01659 c -0.0228,-0.05608 -0.0435,-0.113824 -0.0633,-0.170251 a 0.85083679,0.85083679 0 0 0 0.043,-0.06976 c 0.0632,-0.112477 0.0213,-0.0865 -0.043,-0.06955 l -0.0431,0.0092 c -0.023,-0.07326 -0.0445,-0.147365 -0.0638,-0.220197 a 0.66393744,0.66393744 0 0 0 0.0445,-0.05806 c 0.0766,-0.10599 0.0325,-0.08392 -0.0341,-0.07551 a 0.46279819,0.46279819 0 0 1 -0.0425,0.0043 6.0377364,6.0377364 0 0 1 -0.0467,-0.207683 0.67639744,0.67639744 0 0 0 0.0906,-0.104388 c 0.0752,-0.104856 0.0319,-0.08336 -0.0348,-0.07496 -0.034,0.0064 -0.0645,0.0057 -0.089,0.005 a 7.1395521,7.1395521 0 0 1 -0.0275,-0.167322 l -0.006,-0.03899 a 0.525098,0.525098 0 0 0 0.12924,-0.131598 c 0.0766,-0.105983 0.0325,-0.08391 -0.0341,-0.0755 a 0.5962977,0.5962977 0 0 1 -0.11617,0.0043 7.6628702,7.6628702 0 0 1 -0.0145,-0.19495 0.45745823,0.45745823 0 0 0 0.16076,-0.12677 c 0.0886,-0.09409 0.0408,-0.07941 -0.0258,-0.07796 -0.0767,0.0021 -0.12536,-0.01141 -0.14771,-0.01482 l -0.004,-0.09273 c 0.063,0.01531 0.17251,0.0014 0.2783,-0.0057 a 0.75649709,0.75649709 0 0 0 0.27308,-0.0737 c 0.0331,-0.02708 -0.0137,-0.296744 0.59003,-0.708403 0.60447,-0.412212 0.68411,-0.386491 0.73373,-0.427037 0.0483,-0.03942 0.12158,-0.164883 0.1239,-0.169073 l 0.034,-0.0064 a 9.8175522,9.8175522 0 0 1 1.04946,-0.08283 c 0.52814,-0.0064 0.86054,0.04048 0.86054,0.04048 0,0 -0.024,0.163366 0.19223,0.169158 a 2.9547887,2.9547887 0 0 0 0.38895,6.1e-4 1.9197226,1.9197226 0 0 0 0.26022,-0.02191 3.1772878,3.1772878 0 0 1 0.13217,0.038 10.222501,10.222501 0 0 1 0.60381,0.228414 9.3058036,9.3058036 0 0 1 0.46905,0.22243 c 0.31289,0.157879 0.57014,0.317998 0.78131,0.469546 a 5.0026704,5.0026704 0 0 1 0.62175,0.552793 2.0087223,2.0087223 0 0 1 0.13346,0.168952 0.3657886,0.3657886 0 0 0 0.0731,0.311696 0.3657886,0.3657886 0 0 0 0.47591,0.07889 c 0.38105,0.179411 1.50852,0.464967 4.74775,0.350263 l 0.14265,-0.0043 -0.006,3.9e-4 0.0397,-0.0021 c -3.46058,-0.08026 -4.41448,-0.437515 -4.7518,-0.636557 a 0.3657886,0.3657886 0 0 0 -4.9e-4,-0.03857 16.635816,16.635816 0 0 0 0.0188,-0.0021 c -0.0124,0.01014 -0.015,0.0168 -0.015,0.0168 0,0 0.7706,-0.0021 1.92423,-0.158573 1.15807,-0.156617 1.68348,-0.399735 1.78954,-0.454205 l 0.0231,-0.0097 c 0,0 -0.24904,-0.01503 -0.2804,-0.09843 -0.0101,-0.02644 0.10305,-0.110194 0.27526,-0.255297 a 3.5137066,3.5137066 0 0 0 0.4603,-0.456466 3.6489861,3.6489861 0 0 0 0.72523,-1.316572 c 0.41005,-1.3338 0.22666,-1.893037 0.22666,-1.893037 0,0 0.0534,0.839007 -0.35408,1.789117 -0.18023,-0.240204 -1.07638,-1.383513 -2.62674,-2.588941 -1.67238,-1.299926 -3.58184,-2.230312 -3.73928,-2.306263 -0.10299,-0.120439 -0.16422,-0.178574 -0.16422,-0.178574 0,0 0.90597,1.317005 1.53263,2.939218 -0.28002,-0.09655 -1.15143,-0.342996 -2.61108,-0.275559 -1.80337,0.08283 -2.49835,0.275956 -2.52577,0.284599 -0.0894,-0.107203 -0.13899,-0.162268 -0.13899,-0.162268 0,0 0.0525,0.07217 0.13572,0.191427 0.006,0.06955 0.0368,0.464208 -0.003,0.772642 a 3.1861879,3.1861879 0 0 1 -0.12721,0.603874 c -0.084,-0.05778 -0.1583,-0.105225 -0.21947,-0.137773 0.0685,0.05565 0.13187,0.110747 0.19462,0.165032 -0.0801,0.05246 -0.40802,0.257382 -1.05247,0.408256 -0.33112,0.07723 -0.64216,0.07068 -0.88505,0.03928 a 0.14862944,0.14862944 0 0 0 0.005,-0.01333 c 0,0 -0.14777,-0.0079 -0.41234,-0.12628 a 2.1502317,2.1502317 0 0 0 0.45588,-0.468908 2.5925601,2.5925601 0 0 0 0.17397,0.07506 0.43075834,0.43075834 0 0 0 0.10282,0.07105 c 0.0529,0.02673 0.12187,0.01553 0.19198,0.0043 a 0.35332864,0.35332864 0 0 0 0.11277,-0.0083 0.20024923,0.20024923 0 0 1 0.079,0.01928 c 0.16154,0.07954 0.54361,-0.457161 0.54791,-0.654451 0.006,-0.239204 -0.11724,-0.43748 -0.24588,-0.497876 -0.0398,-0.01921 -0.0944,-0.01709 -0.15705,0.0021 -0.12616,-0.151045 -0.51675,-0.43977 -0.91701,-0.554069 a 4.4179432,4.4179432 0 0 1 0.45004,0.398891 c 0.0962,0.105118 0.1543,0.188853 0.18671,0.24969 -0.21714,-0.199644 -0.50509,-0.373425 -1.03116,-0.450419 0.47499,0.232498 0.63702,0.470206 0.77858,0.678627 l 0.0185,0.03531 -0.004,0.005 c -0.17301,-0.160984 -0.39858,-0.28808 -0.87504,-0.392978 a 0.36667861,0.36667861 0 0 1 0.0245,0.01035 l -0.0223,-0.0077 a 1.4471344,1.4471344 0 0 1 0.6951,0.61584 l -0.004,0.0064 c -0.0487,0.005 -0.10211,0.0028 -0.16323,-0.01127 -0.18506,-0.04644 -0.32601,-0.134569 -0.41079,-0.204558 a 0.4699182,0.4699182 0 0 0 -0.26241,-0.226931 c 0.068,-0.26143 0.13952,-0.511453 0.21413,-0.750721 0.0746,-0.232136 0.16148,-0.491595 0.25704,-0.750203 0.0514,-0.134072 0.10332,-0.265996 0.15572,-0.391766 l 0.13646,-0.0229 -10e-4,0.0014 0.008,-0.0021 c 0.9833,-0.160955 1.68957,-0.30932 2.3447,-0.672196 0.73571,-0.409121 1.07219,-1.20138 0.75738,-1.862356 a 1.1427556,1.1427556 0 0 0 -1.15751,-0.640251 l -0.0123,0.0021 c -0.0153,-4.82e-4 -0.0264,0.0043 -0.0425,0.0043 l -0.0626,0.0077 -10e-4,0.0014 c -0.19426,0.03233 -0.39971,0.107216 -0.60969,0.22579 l -0.0215,0.01305 -0.004,0.0035 a 3.1149882,3.1149882 0 0 0 -0.30866,0.201749 c -0.6984,0.516693 -1.25617,1.495256 -1.73725,2.548016 -0.0993,0.01907 -0.20009,0.03928 -0.30433,0.05792 -2.54544,0.467298 -3.71687,1.215268 -4.65127,2.963677 0.26084,-0.386874 0.63206,-0.925615 1.24949,-1.416203 a 0.04449985,0.04449985 0 0 0 0.0183,-0.0057 l -0.006,-0.0043 a 4.8602713,4.8602713 0 0 1 0.47469,-0.330533 l 7.1e-4,0.0014 0.0224,-0.01468 0.002,0.0021 a 0.23762908,0.23762908 0 0 0 -2.5e-4,-0.0028 5.562479,5.562479 0 0 1 1.31793,-0.575706 6.9357437,6.9357437 0 0 1 0.71734,-0.169981 50.792106,50.792106 0 0 1 1.01375,-0.174326 c -0.13961,0.31865 -0.27262,0.639746 -0.40023,0.95337 -0.13825,0.33015 -0.25925,0.62795 -0.35113,0.861532 l -0.004,0.0078 -0.004,0.005 c 0,0 -0.0466,0.05977 -0.0866,0.119028 -0.0878,0.13169 -0.19872,0.333496 -0.31959,0.586461 -0.0851,-0.06473 -0.18657,-0.09472 -0.27677,-0.06444 -0.21326,0.06955 -0.2954,0.210966 -0.30231,0.364265 l -0.006,0.01794 -0.0111,0.05246 c -0.0175,0.04899 -0.0361,0.106317 -0.0569,0.14984 a 1.0145961,1.0145961 0 0 1 -0.0237,0.04544 c -0.0212,0.03034 -0.041,0.05948 -0.0587,0.09134 l -0.0164,0.02637 c -0.0674,-0.286385 -0.26446,-0.451687 -0.26446,-0.451687 0.17935,0.280026 0.19076,0.542938 0.13246,0.713543 -0.0293,0.05431 -0.0615,0.107564 -0.10015,0.158729 -0.0442,0.03609 -0.0927,0.04977 -0.13863,0.0329 -0.11595,-0.04339 -0.25875,-0.01141 -0.37815,0.0492 -0.10103,-0.08992 -0.19648,-0.303776 -0.21197,-0.822106 l -0.0272,0.0934 -7.1e-4,0.0043 -0.0198,0.07696 c -0.0377,0.155021 -0.0554,0.286733 -0.0584,0.398295 a 0.86329667,0.86329667 0 0 0 0.0401,0.317757 c -0.12088,-0.131023 -0.25586,-0.373659 -0.36905,-0.889146 0,0 -0.0631,0.368675 5.2e-4,0.723653 -0.11187,-0.127954 -0.2426,-0.310923 -0.39868,-0.576465 0.1412,0.658095 0.38697,0.93079 0.58197,1.048478 l 0.0281,0.02035 a 0.3853685,0.3853685 0 0 0 0.0435,0.03921 l 0.004,0.06296 c 0.0121,0.180807 0.22678,0.210002 0.33983,0.199289 0.0639,-0.0064 0.22446,-0.0064 0.40122,-0.147542 0.30702,0.05927 0.43598,-0.183777 0.57853,-0.639499 a 1.1543256,1.1543256 0 0 1 0.062,-0.157552 0.64524752,0.64524752 0 0 0 0.10392,0.04977 c -0.0562,0.156277 -0.11275,0.320614 -0.16703,0.490489 -0.10184,0.321245 -0.14688,0.598095 -0.15544,0.83379 -0.0603,0.643504 0.0988,1.09154 -0.0196,1.677945 l 0.008,-0.0084 -0.0243,0.05459 c -0.33069,0.796541 -0.59277,1.112972 -0.61145,1.135135 l -0.07,-0.0901 0.0581,0.09636 a 1.5975439,1.5975439 0 0 1 -0.52518,0.03382 1.8867927,1.8867927 0 0 1 -0.52371,-0.131782 l -0.19973,-0.182593 c 0,0 0.0658,0.08049 0.19266,0.221799 -0.0199,0.190874 -0.1151,1.293885 0.20103,2.671074 0.31228,1.35843 0.77011,2.270425 0.94562,2.587906 a 16.189038,16.189038 0 0 1 -1.84697,-1.325123 c 0,0 0.0766,0.09034 0.23205,0.240438 0.12236,0.286187 0.69852,1.580753 1.68292,2.941692 0.87768,1.214872 1.61027,1.879397 1.88381,2.108697 -0.74899,-0.005 -1.42174,-0.340487 -1.42174,-0.340487 0,0 0.11929,0.08975 0.37563,0.195306 l -0.0286,-0.0071 c 0,0 0.41888,0.180707 0.95346,0.261097 a 5.7404778,5.7404778 0 0 0 0.20505,0.03013 c 0.5562,0.07306 0.93603,-0.05565 1.18478,-0.195702 0.0795,-0.04332 0.1569,-0.0935 0.22927,-0.152633 l 0.0131,-0.01071 c 0.0879,-0.0682 0.13718,-0.114831 0.15755,-0.09834 0.0672,0.05416 0.0847,0.258353 0.0847,0.258353 0,0 0.096,-0.131455 0.19602,-0.539371 0.0644,-0.244614 0.12747,-0.575373 0.15988,-1.004126 a 12.184053,12.184053 0 0 0 0.0531,-1.18691 l -0.001,-0.107642 a 0.18066932,0.18066932 0 0 0 0.0266,0 c 0.13406,0.27098 0.38006,0.974363 0.52011,3.151638 z m -0.11764,-12.67712 a 0.3123888,0.3123888 0 0 1 -0.0128,0.0014 z m -1.28622,-1.944175 c -0.0854,0.01928 -0.19055,0.0341 -0.31802,0.03701 l 0.004,-0.0028 a 0.43075834,0.43075834 0 0 0 0.0674,-0.13549 0.85083679,0.85083679 0 0 1 0.21305,0.08351 z m 2.46199,-3.815936 c -0.091,0.07433 -0.19869,0.14504 -0.32478,0.210158 l -0.016,0.0085 -0.014,0.0071 c -0.0907,0.04374 -0.1886,0.08286 -0.28973,0.119438 l -0.052,0.01652 c -0.17336,0.0565 -0.36013,0.114852 -0.56073,0.173186 -0.29886,0.08433 -0.58262,0.157623 -0.78868,0.213483 l -0.17571,0.04232 c 0.0927,-0.197376 0.18178,-0.373943 0.2506,-0.504895 0.46459,-0.857725 0.95941,-1.399922 1.39119,-1.586039 0.80283,-0.346675 1.38873,0.630648 0.57884,1.299242 z"
       inkscape:connector-curvature="0"
       style="display:inline;fill:#fdfefe;fill-opacity:0.99516913;stroke-width:0.88999647" />
    <circle
       style="display:inline;opacity:1;fill:#114dad;fill-opacity:0.8627451;stroke:#000000;stroke-width:0.21268886;stroke-miterlimit:4;stroke-dasharray:none;stroke-opacity:1"
       id="path963-6"
       cx="75.953827"
       cy="73.877998"
       r="12.862611" />
    <path
       id="path883-7"
       d="m 79.942218,64.273213 -0.03885,0.10649 a 14.458884,14.458884 0 0 0 -0.491779,1.622105 5.1379506,5.1379506 0 0 0 -0.130868,0.741582 2.5631901,2.5631901 0 0 0 -0.0084,0.575635 0.44232834,0.44232834 0 0 0 0.03119,0.157064 l 0.0014,0.0035 a 0.264329,0.264329 0 0 0 -0.07769,0.308959 0.26699897,0.26699897 0 0 0 0.248349,0.172731 c 0.154086,0.294128 0.443612,0.917214 0.785106,1.794768 l 0.04367,0.118744 a 7.1217529,7.1217529 0 0 1 0.41061,2.06635 c -0.01687,-0.0043 -0.02978,-0.0028 -0.0368,0.0035 -0.02368,0.01255 -0.05197,0.136008 -0.07404,0.270179 -0.01815,0.0935 -0.03389,0.200495 -0.03105,0.291398 a 0.32929872,0.32929872 0 0 0 0.02148,0.125458 0.22160916,0.22160916 0 0 0 0.03743,0.06941 c 0.0207,0.02793 0.03729,0.04055 0.03729,0.04055 a 6.0849064,6.0849064 0 0 1 0,0.0077 0.12815951,0.12815951 0 0 0 -7.09e-4,0.06452 l 4.3e-5,0.02893 a 6.0849064,6.0849064 0 0 1 -0.03899,0.52074 l -0.01666,0.142899 a 6.0849064,6.0849064 0 0 1 -0.01985,0.118092 0.13972946,0.13972946 0 0 0 -0.02311,-0.005 0.14239944,0.14239944 0 0 0 -0.0859,0.05608 c -0.02758,0.0436 -0.06069,0.21013 -0.289817,0.468816 -0.07802,0.08772 -0.156014,0.151534 -0.226698,0.200098 a 12.550732,12.550732 0 0 0 -0.479351,-1.792492 4.5140626,4.5140626 0 0 0 -0.402329,-0.852245 c -0.0014,-0.01042 -0.0035,-0.01666 -0.0035,-0.01666 l -7.09e-4,0.0112 a 3.8670352,3.8670352 0 0 0 -0.237354,-0.34408 3.163048,3.163048 0 0 0 -1.056092,-0.90514 C 77.017576,70.030695 76.175215,69.9977 75.538935,70.228254 l -0.104083,0.03935 c -0.0021,-0.0057 -0.005,-0.01241 -0.0057,-0.0195 -0.01496,-0.08783 -0.02219,-0.11286 -0.08187,0.0035 a 0.77607702,0.77607702 0 0 0 -0.02921,0.06352 c -0.04325,0.01886 -0.08213,0.03665 -0.118269,0.05416 a 0.63723756,0.63723756 0 0 1 -0.03835,-0.08827 c -0.02184,-0.06409 -0.02219,-0.11286 -0.08187,0.0035 a 0.49216809,0.49216809 0 0 0 -0.06211,0.184989 c -0.03871,0.02311 -0.06111,0.03892 -0.06111,0.03892 l 0.03637,-0.01687 -0.03623,0.02212 c -0.02701,-0.02942 -0.07851,-0.06934 -0.09254,-0.116235 -0.0307,-0.100757 -0.01071,-0.129768 -0.05211,-0.04147 -0.05126,0.10672 -0.09221,0.253532 -0.08296,0.319764 l -0.06934,0.05665 c -0.02113,-0.0096 -0.08427,-0.03332 -0.12991,-0.118667 -0.04707,-0.08659 -0.0648,-0.133129 -0.08298,-0.01574 a 1.0145961,1.0145961 0 0 0 0.0079,0.331235 c -0.02148,0.02304 -0.04211,0.0458 -0.06161,0.06884 a 0.2402991,0.2402991 0 0 1 -0.104295,-0.124129 c -0.05218,-0.117149 -0.05331,-0.229023 -0.07782,-0.03403 a 1.4542544,1.4542544 0 0 0 0.01354,0.38374 c -0.02098,0.03375 -0.04176,0.06565 -0.06062,0.100006 a 2.402991,2.402991 0 0 1 -0.06289,-0.137872 c -0.04899,-0.116645 -0.08001,-0.250583 -0.06409,2.91e-4 0.0043,0.07394 0.01971,0.176163 0.04821,0.2883 -0.206556,0.451666 -0.233972,0.972597 -0.01248,1.511856 l 0.0028,0.0064 c 0.03743,0.09734 0.07994,0.186485 0.120588,0.268037 0.09524,0.190158 0.191859,0.343117 0.288427,0.464583 -0.03552,0.138844 0.142643,0.603399 0.262111,0.679258 0.09465,0.06175 0.525547,0.125245 0.616124,0.136 a 0.32662876,0.32662876 0 0 1 0.108407,0.04573 c 0.157121,0.117206 0.282465,0.430518 0.274206,0.620733 -0.0097,0.232121 0.182615,0.200111 0.341323,0.170328 0.159573,-0.02765 0.335446,-0.15588 0.343606,-0.250498 0.0074,-0.09394 -0.229449,-0.204578 -0.443102,-0.539755 -0.214525,-0.334999 -0.04927,-0.43465 -0.04927,-0.43465 0,0 0.08598,-0.01269 0.278176,0.127464 0.148747,0.108244 0.291029,0.183565 0.414162,0.230193 a 0.64702752,0.64702752 0 0 1 -0.10923,0.208549 c 0.100474,-0.03637 0.181431,-0.121524 0.222451,-0.172321 a 0.68529735,0.68529735 0 0 0 0.07353,0.01375 0.90334655,0.90334655 0 0 1 -0.02488,0.05778 0.4503383,0.4503383 0 0 0 0.08176,-0.05438 0.262549,0.262549 0 0 0 0.07689,-0.0091 c 0.131817,-0.0419 0.349313,-0.492623 0.325882,-0.551204 -0.0064,-0.0156 -0.02566,-0.02815 -0.05218,-0.03963 -0.04956,-0.02332 -0.132236,-0.0431 -0.229484,-0.07776 a 0.91669646,0.91669646 0 0 1 -0.129258,-0.05948 0.64346755,0.64346755 0 0 1 -0.24019,-0.262586 l -0.0035,-0.0094 -0.01262,-0.02389 c 0,0 0.0028,-0.008 0.0071,-0.02084 l 0.0014,0.0035 -4.54e-4,-0.01071 c 0.01652,-0.0834 -0.0014,-0.362741 -0.744709,-0.735415 a 2.7100397,2.7100397 0 0 0 -0.997355,-0.277757 c -0.190923,-0.376672 -0.17807,-0.804574 0.14353,-1.141225 l -0.0035,0.005 0.0043,-0.0092 c 0.153845,-0.159368 0.375998,-0.298956 0.679718,-0.402344 0.58264,-0.196893 1.126804,-0.106592 1.593188,0.172626 0.660087,0.418437 1.19824,1.226924 1.41923,2.169929 -0.03467,0.07618 -0.02077,0.08001 0.01475,0.06799 a 4.1082245,4.1082245 0 0 1 0.04473,0.243692 l -0.01737,0.02134 c -0.07714,0.101878 -0.03453,0.08376 0.03034,0.07589 l 7.09e-4,0.01772 c 0.005,0.06033 0.0074,0.121651 0.0094,0.181395 a 0.85083679,0.85083679 0 0 0 -0.06189,0.05374 c -0.09407,0.08833 -0.04622,0.07614 0.02014,0.07924 l 0.04389,0.0043 c 2.8e-5,0.0768 -0.0014,0.153937 -0.005,0.229208 a 0.66393746,0.66393746 0 0 0 -0.05984,0.04204 c -0.104855,0.07814 -0.05622,0.07033 0.0099,0.08226 a 0.46279821,0.46279821 0 0 1 0.04183,0.0086 6.0377364,6.0377364 0 0 1 -0.01772,0.212128 0.67639744,0.67639744 0 0 0 -0.117681,0.07243 c -0.103204,0.07748 -0.05544,0.06997 0.01071,0.08194 0.03424,0.0043 0.06317,0.01418 0.08642,0.02191 a 7.1395521,7.1395521 0 0 1 -0.02389,0.167882 l -0.0064,0.03885 a 0.525098,0.525098 0 0 0 -0.162742,0.08679 c -0.104856,0.07814 -0.05622,0.07033 0.0099,0.08225 a 0.5962977,0.5962977 0 0 1 0.112066,0.03091 7.6628702,7.6628702 0 0 1 -0.04467,0.190321 0.45745824,0.45745824 0 0 0 -0.19137,0.07274 c -0.112754,0.06317 -0.06274,0.06352 0.0014,0.08211 0.0737,0.0212 0.116192,0.04842 0.136482,0.05842 l -0.02347,0.08983 c -0.05558,-0.03353 -0.164111,-0.05317 -0.267131,-0.07828 a 0.75649709,0.75649709 0 0 0 -0.282599,-0.01156 c -0.0397,0.01588 -0.07587,0.287207 -0.775287,0.498904 -0.700249,0.212015 -0.768508,0.1636 -0.828011,0.1874 -0.05785,0.02311 -0.165416,0.12085 -0.16889,0.124146 l -0.03424,-0.0043 A 9.8175522,9.8175522 0 0 1 75.17014,76.160532 c -0.505725,-0.152371 -0.808821,-0.296609 -0.808821,-0.296609 0,0 0.07185,-0.148662 -0.132668,-0.219006 a 2.9547887,2.9547887 0 0 0 -0.370873,-0.117206 1.9197227,1.9197227 0 0 0 -0.254829,-0.05707 3.1772879,3.1772879 0 0 1 -0.114696,-0.07585 10.222501,10.222501 0 0 1 -0.507554,-0.398947 9.3058036,9.3058036 0 0 1 -0.380784,-0.352823 c -0.251157,-0.244429 -0.44856,-0.47431 -0.604582,-0.682199 a 5.0026706,5.0026706 0 0 1 -0.427405,-0.713777 2.0087223,2.0087223 0 0 1 -0.07668,-0.201197 0.3657886,0.3657886 0 0 0 0.02375,-0.31926 0.3657886,0.3657886 0 0 0 -0.430362,-0.217956 c -0.309732,-0.285407 -1.299706,-0.895867 -4.424311,-1.75764 l -0.137298,-0.03892 0.0057,0.0014 -0.0385,-0.0099 c 3.277309,1.114128 4.080209,1.74095 4.342327,2.031965 a 0.3657886,0.3657886 0 0 0 -0.01106,0.03701 16.635816,16.635816 0 0 0 -0.01865,-0.0035 c 0.01489,-0.0057 0.01928,-0.01156 0.01928,-0.01156 0,0 -0.735783,-0.22903 -1.883253,-0.425661 C 67.787132,72.134025 67.213,72.208431 67.095482,72.228587 l -0.02495,0.0021 c 0,0 0.233078,0.089 0.237991,0.177971 0.0014,0.02822 -0.131342,0.07423 -0.339146,0.161019 a 3.5137065,3.5137065 0 0 0 -0.575976,0.29746 3.6489861,3.6489861 0 0 0 -1.086606,1.038567 c -0.791089,1.149491 -0.783808,1.737979 -0.783808,1.737979 0,0 0.200601,-0.81642 0.874215,-1.600646 0.09992,0.283195 0.612055,1.642589 1.729664,3.257393 1.205697,1.741546 2.748358,3.201627 2.875787,3.321286 0.0621,0.145784 0.103119,0.219601 0.103119,0.219601 0,0 -0.469412,-1.528042 -0.580868,-3.263519 0.238183,0.176071 0.995611,0.672444 2.408333,1.045748 1.745239,0.46167 2.466155,0.485796 2.494897,0.485775 0.05317,0.12908 0.08395,0.196482 0.08395,0.196482 0,0 -0.0285,-0.08461 -0.07208,-0.223317 0.01482,-0.06827 0.104111,-0.453878 0.234667,-0.736151 a 3.186188,3.186188 0 0 1 0.302422,-0.537947 c 0.06281,0.0803 0.119467,0.14784 0.168059,0.197233 -0.04863,-0.07365 -0.0926,-0.145188 -0.136191,-0.215787 0.09216,-0.02602 0.466419,-0.123217 1.126464,-0.07392 0.339033,0.02559 0.633805,0.125082 0.856101,0.227889 a 0.14862944,0.14862944 0 0 0 -0.0089,0.0112 c 0,0 0.138623,0.05175 0.355502,0.244096 a 2.1502317,2.1502317 0 0 0 -0.575494,0.310654 2.5925602,2.5925602 0 0 0 -0.143451,-0.123757 0.43075835,0.43075835 0 0 0 -0.07679,-0.09862 c -0.0424,-0.0414 -0.111612,-0.0514 -0.18187,-0.06168 a 0.35332865,0.35332865 0 0 0 -0.110059,-0.02588 0.20024924,0.20024924 0 0 1 -0.06962,-0.04211 c -0.130257,-0.124317 -0.65567,0.273135 -0.718923,0.460067 -0.07715,0.226493 -0.01928,0.45251 0.08529,0.548695 0.03226,0.0302 0.08498,0.04459 0.150399,0.04523 0.07507,0.18192 0.361125,0.574465 0.708701,0.803517 a 4.4179432,4.4179432 0 0 1 -0.309739,-0.515473 c -0.06026,-0.12913 -0.09058,-0.226428 -0.103246,-0.294177 0.14728,0.255553 0.36988,0.507674 0.848671,0.73886 -0.383429,-0.364215 -0.466739,-0.639569 -0.539294,-0.880844 l -0.0071,-0.03928 0.005,-0.0035 c 0.11678,0.20545 0.293865,0.394332 0.716953,0.637258 a 0.36667863,0.36667863 0 0 1 -0.02028,-0.01723 l 0.019,0.01411 A 1.4471344,1.4471344 0 0 1 76.53779,78.859022 l 0.0057,-0.005 c 0.04807,0.0097 0.09832,0.02772 0.152335,0.05969 0.162622,0.09979 0.270675,0.226123 0.330561,0.31831 a 0.46991821,0.46991821 0 0 0 0.182303,0.295177 c -0.143232,0.229023 -0.286449,0.446086 -0.429355,0.651983 -0.140828,0.19907 -0.301451,0.420564 -0.470149,0.638627 -0.08921,0.112498 -0.178325,0.222777 -0.266017,0.327051 l -0.137042,-0.01907 0.0021,-7.09e-4 -0.0079,-6.31e-4 c -0.98633,-0.141268 -1.704588,-0.211483 -2.438378,-0.06175 -0.824531,0.169711 -1.383066,0.824637 -1.280926,1.549601 a 1.1427556,1.1427556 0 0 0 0.9123,0.957844 l 0.01234,0.0021 c 0.01446,0.005 0.02652,0.0035 0.04183,0.0086 l 0.06203,0.01134 0.0021,-7.09e-4 c 0.195015,0.02744 0.41346,0.01758 0.649332,-0.03261 l 0.02446,-0.0057 0.005,-0.0021 a 3.1149882,3.1149882 0 0 0 0.35495,-0.09992 c 0.821177,-0.283536 1.646693,-1.049846 2.421285,-1.909932 0.100474,0.01156 0.202643,0.02254 0.307704,0.03594 2.568445,0.317381 3.910242,-0.04495 5.325864,-1.432772 -0.364833,0.290874 -0.880504,0.693529 -1.616627,0.976426 a 0.04449985,0.04449985 0 0 0 -0.01914,2.2e-5 l 0.0043,0.0064 a 4.8602714,4.8602714 0 0 1 -0.551949,0.173001 l -5.25e-4,-0.0014 -0.02581,0.0072 -7.09e-4,-0.0028 a 0.23762909,0.23762909 0 0 0 -5.25e-4,0.0028 5.562479,5.562479 0 0 1 -1.4299,0.154079 6.9357438,6.9357438 0 0 1 -0.735308,-0.05296 50.792106,50.792106 0 0 1 -1.019375,-0.137631 c 0.228719,-0.262139 0.451886,-0.528581 0.667659,-0.789515 0.230874,-0.273518 0.435601,-0.521336 0.593288,-0.716627 l 0.0064,-0.0064 0.005,-0.0035 c 0,0 0.06232,-0.04303 0.118333,-0.08758 0.123232,-0.09931 0.289569,-0.25858 0.480726,-0.463662 0.06175,0.08723 0.149591,0.146302 0.244713,0.144465 0.224302,-0.0021 0.345066,-0.112689 0.397615,-0.256871 l 0.01113,-0.01531 0.02637,-0.04672 c 0.03134,-0.04148 0.06629,-0.0906 0.09918,-0.125898 a 1.0145961,1.0145961 0 0 1 0.0363,-0.03623 c 0.02928,-0.02255 0.057,-0.04445 0.08337,-0.06955 l 0.02354,-0.02028 c -0.02162,0.293404 0.116873,0.510198 0.116873,0.510198 -0.08715,-0.320912 -0.01921,-0.575147 0.08757,-0.720427 0.04417,-0.04303 0.09093,-0.08418 0.143139,-0.121403 0.05289,-0.0212 0.103339,-0.01964 0.142105,0.01021 0.0976,0.07618 0.243415,0.08848 0.375509,0.06643 0.06941,0.116071 0.09636,0.34871 -0.04424,0.847841 l 0.05388,-0.08097 0.0021,-0.0043 0.04197,-0.06749 c 0.08243,-0.136582 0.13878,-0.256943 0.175171,-0.362443 a 0.86329667,0.86329667 0 0 0 0.057,-0.31517 c 0.07603,0.161233 0.132058,0.433184 0.08549,0.958887 0,0 0.17074,-0.332787 0.216468,-0.690516 0.06834,0.155617 0.138212,0.369356 0.207499,0.669488 0.0626,-0.670161 -0.09009,-1.003998 -0.240834,-1.174737 l -0.02077,-0.02786 a 0.38536851,0.38536851 0 0 0 -0.02971,-0.05041 l 0.01581,-0.06104 c 0.04268,-0.176113 -0.153391,-0.268328 -0.264443,-0.292007 -0.06281,-0.01319 -0.21612,-0.06097 -0.427008,0.02049 -0.275127,-0.148606 -0.471021,0.04459 -0.743645,0.436622 a 1.1543256,1.1543256 0 0 1 -0.10643,0.131704 0.64524752,0.64524752 0 0 0 -0.08422,-0.07862 c 0.100503,-0.132222 0.203685,-0.272058 0.306407,-0.417849 0.193476,-0.275928 0.319452,-0.526539 0.398281,-0.748828 0.250526,-0.595798 0.232987,-1.070952 0.521854,-1.594847 l -0.01021,0.0057 0.03956,-0.04481 c 0.554302,-0.660739 0.899205,-0.884034 0.923658,-0.899574 l 0.0397,0.106925 -0.02652,-0.109322 a 1.5975439,1.5975439 0 0 1 0.511163,0.125196 1.8867926,1.8867926 0 0 1 0.460109,0.282742 l 0.135788,0.234078 c 0,0 -0.03864,-0.09651 -0.117298,-0.269363 0.0762,-0.176128 0.497742,-1.199842 0.60907,-2.608459 0.109372,-1.389567 -0.05395,-2.396876 -0.126195,-2.752378 a 16.189038,16.189038 0 0 1 1.364696,1.817929 c 0,0 -0.04594,-0.109137 -0.1493,-0.298948 -0.03091,-0.309703 -0.192434,-1.717462 -0.723497,-3.310941 -0.473062,-1.42213 -0.972697,-2.275729 -1.164904,-2.576492 0.712962,0.229527 1.254241,0.75109 1.254241,0.75109 0,0 -0.08689,-0.121382 -0.299799,-0.298942 l 0.02524,0.01524 c 0,0 -0.345428,-0.297984 -0.831323,-0.534955 A 5.7404778,5.7404778 0 0 0 82.4117,65.16331 c -0.508709,-0.236489 -0.909656,-0.22757 -1.188959,-0.168549 -0.08886,0.01744 -0.177708,0.04218 -0.264485,0.07687 l -0.01574,0.0064 c -0.104339,0.03871 -0.165302,0.06842 -0.179793,0.04658 -0.04785,-0.07178 -0.0035,-0.271845 -0.0035,-0.271845 0,0 -0.131009,0.09663 -0.348718,0.455785 -0.134788,0.214043 -0.294113,0.510681 -0.453587,0.90999 a 12.184053,12.184053 0 0 0 -0.406512,1.116389 l -0.03063,0.103204 a 0.18066932,0.18066932 0 0 0 -0.02531,-0.0079 c -0.04665,-0.298708 -0.07047,-1.043487 0.448759,-3.162582 z m -3.688663,12.129179 a 0.31238881,0.31238881 0 0 1 0.01262,0.0028 z m 0.644136,2.240372 c 0.08722,0.0072 0.191994,0.02467 0.314474,0.06005 l -0.005,0.0021 a 0.43075835,0.43075835 0 0 0 -0.104924,0.109057 0.85083679,0.85083679 0 0 1 -0.178212,-0.143536 z m -3.492841,2.902217 c 0.109074,-0.04367 0.233037,-0.07879 0.372851,-0.103111 l 0.01787,-0.0035 0.01538,-0.0021 c 0.09964,-0.01453 0.204763,-0.02255 0.312214,-0.02708 l 0.05452,-1.35e-4 c 0.182324,-0.0021 0.378005,-0.0014 0.586858,0.0028 0.310398,0.0091 0.603079,0.02432 0.816399,0.03283 l 0.180325,0.01226 c -0.147635,0.160495 -0.285528,0.302238 -0.390454,0.406526 -0.700378,0.678967 -1.334999,1.047869 -1.802709,1.095965 -0.86984,0.09002 -1.135765,-1.018007 -0.162671,-1.41302 z"
       inkscape:connector-curvature="0"
       style="display:inline;fill:#fdfefe;fill-opacity:1;stroke-width:0.88999647" />
  </g>
</svg>
